<svg width="2001" height="542" viewBox="0 0 2001 542" fill="none" xmlns="http://www.w3.org/2000/svg">
<path d="M0.882812 143.673C2.89887 130.443 15.2472 121.353 28.4951 123.351L66.5645 129.147C79.7944 131.163 88.9026 143.529 86.8867 156.759C85.0507 168.765 74.7191 177.35 62.9473 177.351V177.369C61.7413 177.369 60.4984 177.279 59.2744 177.081L21.2051 171.285C7.97508 169.269 -1.13319 156.903 0.882812 143.673ZM57.4131 70.8711C66.4131 60.9532 81.731 60.1973 91.667 69.1973L105.671 81.9053C115.589 90.9053 116.345 106.223 107.345 116.159C102.557 121.433 95.9868 124.115 89.3809 124.115H89.3633C83.5493 124.115 77.7348 122.045 73.0908 117.833L59.0869 105.125C49.1691 96.125 48.4131 80.807 57.4131 70.8711Z" fill="white"/>
<path d="M309.166 0.670898C346.82 0.67097 382.366 14.5297 409.833 39.2959C412.854 42.0137 416.571 43.8141 420.556 44.498C456.942 50.6897 489.842 70.0562 513.307 99.7002C536.79 129.344 548.21 165.954 546.101 203.05C545.869 207.135 546.78 211.185 548.746 214.749L548.763 214.784C566.652 247.272 572.139 285.25 563.757 322.22C554.893 361.277 531.625 394.592 498.778 416.011C489.038 442.649 472.061 466.192 449.74 483.633C426.128 502.08 397.029 513.181 370.446 526.416H370.32C350.411 535.721 328.609 540.671 306.627 540.671C292.42 540.671 278.498 538.691 264.988 534.749C261.074 533.615 256.928 533.615 253.014 534.749C239.521 538.673 225.6 540.653 211.392 540.653C177.973 540.653 144.966 529.241 118.445 508.507C97.7679 492.344 81.6662 470.943 71.6763 446.717C70.1393 442.973 67.5651 439.733 64.2769 437.394C34.1463 415.921 12.8263 384.081 4.44482 347.094C-5.8668 301.665 4.78473 254.706 33.6108 218.276L40.0083 210.177C43.9578 205.191 48.9439 201.142 54.6089 198.334L87.2593 182.135C93.121 179.219 99.5729 177.689 106.114 177.689L118.695 177.653C132.456 160.95 137.62 139.153 132.831 118.059L131.848 113.758C129.686 104.147 131.973 94.0667 138.067 86.3633L140.801 82.9072C155.17 64.7645 173.077 50.4735 193.146 40.7002L193.467 40.5381L235.625 19.8037C257.786 7.36654 282.966 0.670898 309.166 0.670898ZM309.586 42.252C280.283 42.252 250.979 53.7721 229.235 76.7939C225.473 80.7719 223.673 86.2802 224.519 91.6982C234.491 155.526 187.421 214.548 122.981 219.03C117.491 219.408 112.522 222.414 109.462 226.986C96.8626 245.796 90.8863 267.09 90.8862 288.132C90.8862 326.58 110.867 364.254 147.046 384.666C151.006 386.898 154.085 390.48 155.363 394.836C169.619 443.382 214.151 474.234 261.617 474.234C275.333 474.234 289.301 471.659 302.855 466.188C307.175 464.442 311.981 464.442 316.319 466.188C329.873 471.66 343.823 474.234 357.557 474.234C405.005 474.234 449.537 443.382 463.811 394.836C465.089 390.48 468.167 386.898 472.126 384.666C508.306 364.254 528.287 326.58 528.287 288.132C528.287 266.568 522.005 244.752 508.775 225.582C506.057 221.64 504.743 216.852 505.499 212.136C506.471 206.178 506.939 200.256 506.939 194.424C506.939 137.418 462.515 88.0985 403.691 84.1924C398.903 83.8684 394.474 81.7262 391.252 78.1982C369.382 54.2402 338.89 42.252 309.586 42.252Z" fill="white"/>
<path d="M309.578 153.672C329.468 153.672 345.578 169.782 345.578 189.672V261.672C345.578 281.562 329.468 297.672 309.578 297.672C289.688 297.672 273.578 281.562 273.578 261.672V189.672C273.578 169.782 289.688 153.672 309.578 153.672ZM421.27 153.67C441.159 153.67 457.27 169.78 457.27 189.67V261.67C457.269 281.56 441.159 297.67 421.27 297.67C401.38 297.67 385.27 281.56 385.27 261.67V189.67C385.27 169.78 401.38 153.67 421.27 153.67Z" fill="white"/>
<path d="M891.172 105.857L852.49 106.066L796.885 194.783L741.28 105.857H702.598V288.928H741.28V167.855L787.425 241.438H806.345L852.595 167.751V288.928H891.277V105.857H891.172Z" fill="white"/>
<path d="M1382.27 197.184V288.928H1343.38V203.029C1343.38 203.029 1344.53 179.44 1321.93 179.44C1299.33 179.44 1291.35 191.13 1291.35 203.029V288.928H1252.45V150.529H1291.35V167.959C1291.35 167.959 1302.8 147.711 1335.7 147.711C1384.69 147.711 1382.27 192.904 1382.27 197.184Z" fill="white"/>
<path d="M1862.01 150.529H1817.02L1760.89 202.716V105.857H1722V288.928H1760.89V244.674L1772.35 234.028L1817.13 288.928H1862.11L1797.78 210.23L1862.11 150.529H1862.01Z" fill="white"/>
<path d="M990.715 145.517H985.46C946.462 145.517 914.508 177.247 914.508 215.969V223.275C914.508 261.997 946.462 293.727 985.46 293.727H990.715C1029.71 293.727 1061.67 261.997 1061.67 223.275V215.969C1061.67 177.247 1029.71 145.517 990.715 145.517ZM1023.83 221.918C1023.83 242.688 1007.74 259.701 988.088 259.701C968.431 259.701 952.349 242.688 952.349 221.918V217.221C952.349 196.451 968.431 179.438 988.088 179.438C1007.74 179.438 1023.83 196.451 1023.83 217.221V221.918Z" fill="white"/>
<path d="M1157.22 145.517H1151.97C1112.97 145.517 1081.01 177.247 1081.01 215.969V223.275C1081.01 261.997 1112.97 293.727 1151.97 293.727H1157.22C1196.22 293.727 1228.17 261.997 1228.17 223.275V215.969C1228.17 177.247 1196.22 145.517 1157.22 145.517ZM1190.33 221.918C1190.33 242.688 1174.25 259.701 1154.59 259.701C1134.94 259.701 1118.85 242.688 1118.85 221.918V217.221C1118.85 196.451 1134.94 179.438 1154.59 179.438C1174.25 179.438 1190.33 196.451 1190.33 217.221V221.918Z" fill="white"/>
<path d="M1512.82 243.104L1537.2 267.319C1523.85 283.184 1503.36 293.516 1480.76 293.516C1440.18 293.516 1407.28 260.848 1407.28 220.56V218.368C1407.28 178.289 1440.18 145.411 1480.76 145.411C1503.36 145.411 1524.17 155.848 1537.62 172.235L1512.82 196.45C1506.2 187.787 1493.69 182.046 1481.7 182.046C1460.68 182.046 1444.07 199.894 1444.07 220.664C1444.07 241.434 1460.68 257.508 1481.7 257.508C1493.58 257.508 1506.09 252.08 1512.82 243.313V243.104Z" fill="white"/>
<path d="M1656.51 150.421V162.737C1646.31 152.3 1631.28 145.411 1616.67 145.411C1577.25 145.411 1544.98 177.454 1544.98 216.594V222.543C1544.98 261.683 1577.25 293.725 1616.67 293.725C1631.28 293.725 1646.31 286.732 1656.51 276.399V288.715H1695.19V150.421H1656.51ZM1621.08 259.282C1599.95 259.282 1582.61 242.061 1582.61 221.082V218.055C1582.61 197.076 1599.95 179.854 1621.08 179.854C1640.53 179.854 1656.51 195.719 1656.51 215.028V224.213C1656.51 243.522 1640.53 259.387 1621.08 259.387V259.282Z" fill="white"/>
<path d="M1997.5 205.218C1995.5 189.98 1988.25 176.516 1977.73 165.974C1965.02 153.345 1947.57 145.517 1928.33 145.517C1889.96 145.517 1858.64 176.516 1858.64 214.612V224.632C1858.64 262.519 1889.86 293.727 1928.23 293.727C1951.67 293.727 1969.64 289.448 1992.03 271.078L1967.22 249.264C1961.86 252.917 1951.35 258.657 1936.32 258.657C1918.55 258.657 1897.32 247.385 1895.32 227.972H1998.23V217.848C1998.23 215.03 1998.02 208.558 1997.6 205.323L1997.5 205.218ZM1895.43 205.218C1898.27 190.398 1912.67 179.23 1928.33 179.23C1943.99 179.23 1958.18 190.398 1961.34 205.218H1895.53H1895.43Z" fill="white"/>
<path d="M703.065 459.261V367.261H741.311C746.568 367.261 751.3 368.531 755.506 371.072C759.799 373.613 763.216 377.074 765.757 381.455C768.298 385.836 769.568 390.743 769.568 396.175C769.568 401.695 768.298 406.69 765.757 411.158C763.216 415.539 759.799 419.044 755.506 421.672C751.3 424.301 746.568 425.615 741.311 425.615H720.151V459.261H703.065ZM720.151 409.844H740.128C742.319 409.844 744.29 409.231 746.043 408.004C747.883 406.777 749.328 405.156 750.38 403.141C751.519 401.126 752.088 398.848 752.088 396.307C752.088 393.766 751.519 391.531 750.38 389.604C749.328 387.589 747.883 386.011 746.043 384.872C744.29 383.646 742.319 383.032 740.128 383.032H720.151V409.844ZM815.147 460.576C808.225 460.576 802.048 459.042 796.615 455.976C791.183 452.821 786.889 448.528 783.735 443.095C780.581 437.663 779.004 431.486 779.004 424.564C779.004 417.642 780.581 411.465 783.735 406.032C786.889 400.6 791.183 396.35 796.615 393.284C802.048 390.129 808.225 388.552 815.147 388.552C821.981 388.552 828.114 390.129 833.547 393.284C838.979 396.35 843.229 400.6 846.295 406.032C849.45 411.465 851.027 417.642 851.027 424.564C851.027 431.486 849.45 437.663 846.295 443.095C843.229 448.528 838.979 452.821 833.547 455.976C828.114 459.042 821.981 460.576 815.147 460.576ZM815.147 446.25C818.914 446.25 822.244 445.286 825.135 443.358C828.114 441.431 830.436 438.846 832.101 435.604C833.853 432.362 834.686 428.682 834.598 424.564C834.686 420.358 833.853 416.634 832.101 413.392C830.436 410.151 828.114 407.61 825.135 405.77C822.244 403.842 818.914 402.878 815.147 402.878C811.379 402.878 807.962 403.842 804.895 405.77C801.916 407.61 799.594 410.194 797.929 413.524C796.265 416.766 795.432 420.446 795.432 424.564C795.432 428.682 796.265 432.362 797.929 435.604C799.594 438.846 801.916 441.431 804.895 443.358C807.962 445.286 811.379 446.25 815.147 446.25ZM879.217 459.261L855.954 389.998L872.514 389.867L888.023 439.284L885.132 439.021L901.955 400.381H911.68L928.898 439.021L925.48 439.415L941.12 389.998H957.681L934.286 459.261H922.72L904.977 417.73L907.475 417.992L890.652 459.261H879.217ZM1000.12 460.576C992.843 460.576 986.403 459.042 980.796 455.976C975.276 452.909 970.938 448.747 967.784 443.49C964.717 438.145 963.184 432.055 963.184 425.221C963.184 419.789 964.06 414.838 965.813 410.37C967.565 405.901 969.975 402.046 973.041 398.804C976.196 395.474 979.919 392.933 984.213 391.181C988.594 389.341 993.369 388.421 998.539 388.421C1003.09 388.421 1007.34 389.297 1011.29 391.05C1015.23 392.802 1018.65 395.211 1021.54 398.278C1024.43 401.257 1026.62 404.85 1028.11 409.055C1029.69 413.173 1030.43 417.686 1030.34 422.592L1030.21 428.244H974.093L971.07 417.204H1016.68L1014.57 419.438V416.547C1014.31 413.831 1013.43 411.465 1011.94 409.45C1010.45 407.347 1008.53 405.726 1006.16 404.587C1003.88 403.36 1001.34 402.747 998.539 402.747C994.245 402.747 990.609 403.579 987.63 405.244C984.738 406.909 982.548 409.318 981.058 412.472C979.569 415.539 978.824 419.394 978.824 424.038C978.824 428.507 979.744 432.406 981.584 435.735C983.512 439.065 986.184 441.65 989.601 443.49C993.106 445.242 997.18 446.118 1001.82 446.118C1005.07 446.118 1008.05 445.593 1010.76 444.541C1013.48 443.49 1016.41 441.606 1019.57 438.89L1027.58 450.061C1025.22 452.252 1022.5 454.135 1019.44 455.713C1016.46 457.202 1013.3 458.385 1009.97 459.261C1006.64 460.137 1003.36 460.576 1000.12 460.576ZM1044.66 459.261V389.998H1060.56L1060.83 412.078L1058.59 407.084C1059.56 403.579 1061.22 400.425 1063.59 397.621C1065.95 394.817 1068.67 392.627 1071.74 391.05C1074.89 389.385 1078.18 388.552 1081.59 388.552C1083.08 388.552 1084.48 388.684 1085.8 388.947C1087.2 389.209 1088.34 389.516 1089.22 389.867L1084.88 407.61C1083.92 407.084 1082.73 406.646 1081.33 406.295C1079.93 405.945 1078.53 405.77 1077.12 405.77C1074.93 405.77 1072.83 406.208 1070.82 407.084C1068.89 407.872 1067.18 409.011 1065.69 410.501C1064.2 411.991 1063.02 413.743 1062.14 415.758C1061.35 417.686 1060.96 419.876 1060.96 422.33V459.261H1044.66ZM1129.49 460.576C1122.22 460.576 1115.78 459.042 1110.17 455.976C1104.65 452.909 1100.31 448.747 1097.16 443.49C1094.09 438.145 1092.56 432.055 1092.56 425.221C1092.56 419.789 1093.44 414.838 1095.19 410.37C1096.94 405.901 1099.35 402.046 1102.42 398.804C1105.57 395.474 1109.29 392.933 1113.59 391.181C1117.97 389.341 1122.74 388.421 1127.91 388.421C1132.47 388.421 1136.72 389.297 1140.66 391.05C1144.61 392.802 1148.02 395.211 1150.91 398.278C1153.81 401.257 1156 404.85 1157.49 409.055C1159.06 413.173 1159.81 417.686 1159.72 422.592L1159.59 428.244H1103.47L1100.45 417.204H1146.05L1143.95 419.438V416.547C1143.69 413.831 1142.81 411.465 1141.32 409.45C1139.83 407.347 1137.9 405.726 1135.54 404.587C1133.26 403.36 1130.72 402.747 1127.91 402.747C1123.62 402.747 1119.98 403.579 1117.01 405.244C1114.11 406.909 1111.92 409.318 1110.43 412.472C1108.94 415.539 1108.2 419.394 1108.2 424.038C1108.2 428.507 1109.12 432.406 1110.96 435.735C1112.89 439.065 1115.56 441.65 1118.98 443.49C1122.48 445.242 1126.56 446.118 1131.2 446.118C1134.44 446.118 1137.42 445.593 1140.14 444.541C1142.85 443.49 1145.79 441.606 1148.94 438.89L1156.96 450.061C1154.59 452.252 1151.88 454.135 1148.81 455.713C1145.83 457.202 1142.68 458.385 1139.35 459.261C1136.02 460.137 1132.73 460.576 1129.49 460.576ZM1201.9 460.576C1195.77 460.576 1190.25 459.042 1185.34 455.976C1180.52 452.821 1176.67 448.572 1173.77 443.227C1170.97 437.794 1169.57 431.573 1169.57 424.564C1169.57 417.642 1170.97 411.465 1173.77 406.032C1176.58 400.6 1180.39 396.35 1185.21 393.284C1190.12 390.129 1195.64 388.552 1201.77 388.552C1205.1 388.552 1208.3 389.078 1211.36 390.13C1214.52 391.181 1217.32 392.627 1219.77 394.467C1222.23 396.219 1224.16 398.19 1225.56 400.381C1227.05 402.571 1227.88 404.85 1228.05 407.215L1223.72 407.741V362.004H1239.88V459.261H1224.24L1223.85 442.964L1227 443.227C1226.92 445.417 1226.13 447.52 1224.64 449.535C1223.24 451.551 1221.4 453.391 1219.12 455.055C1216.84 456.72 1214.17 458.078 1211.1 459.13C1208.12 460.094 1205.05 460.576 1201.9 460.576ZM1205.05 446.907C1208.82 446.907 1212.15 445.943 1215.04 444.015C1217.93 442.088 1220.17 439.459 1221.75 436.13C1223.41 432.8 1224.24 428.945 1224.24 424.564C1224.24 420.271 1223.41 416.459 1221.75 413.13C1220.17 409.712 1217.93 407.084 1215.04 405.244C1212.15 403.316 1208.82 402.352 1205.05 402.352C1201.29 402.352 1197.96 403.316 1195.07 405.244C1192.17 407.084 1189.9 409.712 1188.23 413.13C1186.65 416.459 1185.87 420.271 1185.87 424.564C1185.87 428.945 1186.65 432.8 1188.23 436.13C1189.9 439.459 1192.17 442.088 1195.07 444.015C1197.96 445.943 1201.29 446.907 1205.05 446.907ZM1335.11 460.576C1332.05 460.576 1329.02 460.137 1326.04 459.261C1323.15 458.297 1320.52 457.027 1318.16 455.45C1315.79 453.873 1313.82 452.12 1312.24 450.193C1310.67 448.177 1309.62 446.162 1309.09 444.147L1312.9 442.438L1312.51 458.998H1296.87V362.004H1313.03V406.032L1310.14 404.718C1310.58 402.615 1311.54 400.644 1313.03 398.804C1314.61 396.876 1316.54 395.168 1318.82 393.678C1321.09 392.101 1323.59 390.874 1326.31 389.998C1329.02 389.034 1331.78 388.552 1334.59 388.552C1340.81 388.552 1346.28 390.086 1351.02 393.152C1355.84 396.219 1359.6 400.469 1362.32 405.901C1365.12 411.333 1366.52 417.511 1366.52 424.433C1366.52 431.442 1365.17 437.663 1362.45 443.095C1359.73 448.528 1355.97 452.821 1351.15 455.976C1346.42 459.042 1341.07 460.576 1335.11 460.576ZM1331.7 446.381C1335.38 446.381 1338.66 445.461 1341.55 443.621C1344.44 441.694 1346.72 439.109 1348.39 435.867C1350.05 432.537 1350.88 428.726 1350.88 424.433C1350.88 420.227 1350.05 416.503 1348.39 413.261C1346.81 410.019 1344.58 407.478 1341.68 405.638C1338.79 403.798 1335.46 402.878 1331.7 402.878C1327.93 402.878 1324.6 403.798 1321.71 405.638C1318.82 407.478 1316.54 410.019 1314.87 413.261C1313.21 416.503 1312.38 420.227 1312.38 424.433C1312.38 428.726 1313.21 432.537 1314.87 435.867C1316.54 439.109 1318.82 441.694 1321.71 443.621C1324.6 445.461 1327.93 446.381 1331.7 446.381ZM1388.88 489.49L1403.6 455.45L1403.73 466.227L1369.56 389.998H1388.23L1407.28 435.21C1407.9 436.349 1408.51 437.882 1409.12 439.81C1409.74 441.65 1410.26 443.49 1410.7 445.33L1407.41 446.381C1408.03 444.716 1408.69 442.964 1409.39 441.124C1410.09 439.196 1410.74 437.225 1411.36 435.21L1427.65 389.998H1446.45L1417.53 459.261L1405.71 489.49H1388.88Z" fill="white"/>
<mask id="mask0_225_852" style="mask-type:luminance" maskUnits="userSpaceOnUse" x="1480" y="347" width="507" height="132">
<path d="M1986.53 347.792H1480.88V478.597H1986.53V347.792Z" fill="white"/>
</mask>
<g mask="url(#mask0_225_852)">
<path d="M1566.13 387.567L1549.08 370.52L1480.9 438.707L1497.94 455.755L1566.13 387.567Z" fill="white"/>
<path d="M1540.55 361.996L1526.35 347.79L1503.62 370.52L1517.82 384.726L1540.55 361.996Z" fill="white"/>
<path d="M1543.5 455.864L1529.29 441.658L1506.56 464.388L1520.77 478.594L1543.5 455.864Z" fill="white"/>
<path d="M1986.53 394.292L1975.12 382.882L1944.34 413.664L1913.56 382.882L1902.15 394.292L1932.93 425.074L1902.15 455.855L1913.56 467.265L1944.34 436.483L1975.12 467.265L1986.53 455.855L1955.75 425.074L1986.53 394.292Z" fill="white"/>
<path d="M1858.08 431.873H1801.72C1800.84 440.144 1806.93 448.836 1815.37 451.657C1826.4 455.347 1836.48 451.662 1842.45 441.617C1846.86 443.73 1851.29 445.848 1855.89 448.045C1849.72 458.481 1841.05 465.096 1829.27 467.001C1816.33 469.093 1804.94 465.57 1795.84 455.967C1788.07 447.764 1785.04 437.671 1785.27 426.528C1785.45 417.856 1787.62 409.721 1792.91 402.731C1801.84 390.921 1813.99 386.137 1828.4 388.469C1843.18 390.858 1852.29 400.227 1856.63 414.353C1858.34 419.928 1858.51 425.674 1858.08 431.878L1858.08 431.873ZM1841.09 417.419C1840.56 409.377 1832.65 402.975 1823.43 402.58C1812.05 402.09 1803.96 409.367 1802.65 417.419H1841.09Z" fill="white"/>
<path d="M1644.56 389.767H1618.54H1604.22H1602.4V464.718H1618.54V403.82H1644.56V389.767Z" fill="white"/>
<path d="M1897.61 431.936V417.882H1874.09V431.936H1897.61Z" fill="white"/>
<path d="M1780.41 389.768H1757.5V366.346H1741.37V389.768V403.821V464.719H1757.5V403.821H1780.41V389.768Z" fill="white"/>
<path d="M1712.75 389.511V399.318C1706.02 392.13 1696.73 387.685 1686.46 387.685C1665.91 387.685 1649.25 405.512 1649.25 427.502C1649.25 449.493 1665.91 467.32 1686.46 467.32C1696.73 467.32 1706.02 462.875 1712.75 455.687V464.718H1726.8V389.511H1712.75ZM1688.55 451.919C1675.9 451.919 1665.64 440.988 1665.64 427.508C1665.64 414.027 1675.9 403.097 1688.55 403.097C1701.19 403.097 1711.45 414.027 1711.45 427.508C1711.45 440.988 1701.19 451.919 1688.55 451.919Z" fill="white"/>
</g>
</svg>
