<svg width="1050" height="1000" viewBox="0 0 1050 1000" fill="none" xmlns="http://www.w3.org/2000/svg">
<path d="M105.422 311.855C108.408 292.255 126.701 278.789 146.328 281.748L202.728 290.335C222.328 293.322 235.821 311.642 232.835 331.241C230.115 349.028 214.808 361.748 197.368 361.748V361.775C195.581 361.775 193.742 361.641 191.928 361.348L135.528 352.762C115.928 349.775 102.435 331.455 105.422 311.855ZM189.171 204C202.504 189.307 225.197 188.188 239.917 201.521L260.664 220.347C275.357 233.68 276.477 256.374 263.143 271.094C256.05 278.907 246.317 282.88 236.53 282.88H236.504C227.89 282.88 219.277 279.813 212.397 273.573L191.65 254.747C176.957 241.414 175.837 218.72 189.171 204Z" fill="black"/>
<path d="M562.137 100C617.921 100 670.581 120.532 711.274 157.223C715.749 161.249 721.256 163.915 727.16 164.929C781.065 174.101 829.807 202.793 864.569 246.71C899.358 290.627 916.276 344.864 913.152 399.82C912.808 405.873 914.158 411.873 917.07 417.152L917.097 417.205C943.599 465.335 951.728 521.599 939.311 576.368C926.179 634.231 891.707 683.588 843.045 715.319C828.616 754.783 803.464 789.661 770.396 815.499C735.415 842.828 692.305 859.274 652.922 878.882H652.737C623.243 892.668 590.942 900 558.377 900C537.329 900 516.704 897.067 496.688 891.228C490.89 889.548 484.748 889.548 478.95 891.228C458.961 897.04 438.336 899.974 417.288 899.974C367.779 899.974 318.878 883.068 279.588 852.35C248.956 828.405 225.101 796.7 210.301 760.81C208.024 755.263 204.211 750.464 199.34 746.997C154.702 715.186 123.116 668.015 110.699 613.219C95.4229 545.917 111.202 476.348 153.907 422.379L163.386 410.379C169.237 402.993 176.624 396.994 185.017 392.834L233.388 368.835C242.072 364.515 251.629 362.249 261.319 362.249L279.959 362.196C300.345 337.451 307.996 305.159 300.9 273.908L299.444 267.535C296.241 253.296 299.63 238.364 308.658 226.951L312.709 221.832C333.995 194.954 360.525 173.782 390.257 159.303L390.733 159.062L453.189 128.345C486.019 109.919 523.323 100 562.137 100ZM562.762 161.602C519.349 161.602 475.935 178.668 443.722 212.774C438.148 218.668 435.481 226.828 436.734 234.854C451.508 329.414 381.774 416.855 286.308 423.495C278.175 424.055 270.815 428.508 266.281 435.281C247.615 463.148 238.762 494.695 238.762 525.868C238.762 582.828 268.361 638.642 321.961 668.882C327.828 672.189 332.388 677.495 334.281 683.948C355.401 755.868 421.374 801.575 491.694 801.575C512.014 801.575 532.708 797.762 552.788 789.655C559.188 787.069 566.308 787.069 572.734 789.655C592.814 797.762 613.481 801.575 633.828 801.575C704.121 801.575 770.095 755.868 791.241 683.948C793.135 677.495 797.695 672.189 803.562 668.882C857.162 638.642 886.762 582.828 886.762 525.868C886.762 493.922 877.454 461.601 857.854 433.201C853.828 427.361 851.881 420.268 853.001 413.281C854.441 404.455 855.135 395.682 855.135 387.042C855.135 302.589 789.321 229.522 702.175 223.735C695.081 223.255 688.521 220.081 683.748 214.854C651.348 179.361 606.175 161.602 562.762 161.602Z" fill="black"/>
<path d="M562.75 326.668C592.216 326.668 616.083 350.534 616.083 380.001V486.668C616.082 516.134 592.216 540.001 562.75 540.001C533.283 540.001 509.417 516.134 509.417 486.668V380.001C509.417 350.534 533.283 326.668 562.75 326.668ZM728.217 326.665C757.684 326.665 781.55 350.532 781.55 379.998V486.665C781.55 516.132 757.684 539.998 728.217 539.998C698.751 539.998 674.884 516.132 674.884 486.665V379.998C674.884 350.532 698.751 326.665 728.217 326.665Z" fill="black"/>
</svg>
