<svg width="1300" height="1069" viewBox="0 0 1300 1069" fill="none" xmlns="http://www.w3.org/2000/svg">
<path d="M324.828 164.187C327.143 148.997 341.319 138.561 356.53 140.855L400.24 147.509C415.43 149.824 425.887 164.022 423.573 179.212C421.465 192.997 409.601 202.855 396.085 202.855V202.875C394.701 202.875 393.275 202.772 391.87 202.544L348.16 195.89C332.97 193.575 322.513 179.377 324.828 164.187ZM389.732 80.6001C400.065 69.2128 417.653 68.3449 429.061 78.6782L445.139 93.269C456.526 103.602 457.395 121.189 447.062 132.597C441.565 138.653 434.021 141.732 426.436 141.732H426.416C419.74 141.732 413.065 139.356 407.733 134.52L391.654 119.929C380.267 109.596 379.399 92.0081 389.732 80.6001Z" fill="black"/>
<path d="M678.781 0C722.014 8.79411e-05 762.825 15.9124 794.362 44.3477C797.83 47.4681 802.098 49.535 806.674 50.3203C848.45 57.4292 886.225 79.6645 913.166 113.7C940.128 147.736 953.239 189.769 950.817 232.36C950.551 237.051 951.597 241.701 953.854 245.793L953.875 245.834C974.414 283.135 980.713 326.739 971.09 369.186C960.913 414.029 934.198 452.28 896.484 476.872C885.302 507.457 865.809 534.487 840.181 554.512C813.071 575.691 779.661 588.437 749.14 603.633H748.996C726.138 614.317 701.105 620 675.867 620C659.555 620 643.571 617.727 628.059 613.201C623.565 611.899 618.805 611.899 614.312 613.201C598.82 617.706 582.836 619.979 566.523 619.979C528.154 619.979 490.255 606.878 459.806 583.071C436.066 564.514 417.578 539.942 406.108 512.127C404.344 507.829 401.389 504.109 397.613 501.423C363.019 476.769 338.54 440.212 328.917 397.745C317.078 345.586 329.307 291.67 362.403 249.844L369.749 240.544C374.284 234.82 380.008 230.17 386.513 226.946L424 208.348C430.73 205 438.138 203.243 445.647 203.243L460.093 203.202C475.892 184.025 481.822 158.999 476.323 134.779L475.194 129.84C472.712 118.805 475.338 107.232 482.335 98.3877L485.475 94.4199C501.972 73.5894 522.531 57.1812 545.573 45.96L545.943 45.7734L594.347 21.9668C619.79 7.6872 648.701 0 678.781 0ZM679.265 47.7412C645.619 47.7412 611.974 60.9678 587.009 87.4004C582.689 91.9677 580.622 98.292 581.594 104.513C593.043 177.797 539 245.563 465.014 250.709C458.711 251.143 453.007 254.594 449.493 259.843C435.026 281.439 428.165 305.889 428.165 330.048C428.165 374.192 451.105 417.447 492.645 440.883C497.191 443.445 500.725 447.558 502.192 452.56C518.56 508.298 569.69 543.721 624.188 543.721C639.936 543.721 655.973 540.765 671.535 534.482C676.495 532.478 682.013 532.478 686.994 534.482C702.556 540.765 718.573 543.721 734.342 543.721C788.819 543.721 839.948 508.297 856.337 452.56C857.804 447.558 861.338 443.445 865.885 440.883C907.425 417.447 930.365 374.192 930.365 330.048C930.365 305.289 923.152 280.241 907.962 258.231C904.841 253.705 903.333 248.208 904.201 242.793C905.317 235.952 905.854 229.153 905.854 222.457C905.854 157.006 854.849 100.379 787.311 95.8945C781.813 95.5225 776.729 93.0633 773.029 89.0127C747.919 61.5054 712.91 47.7412 679.265 47.7412Z" fill="black"/>
<path d="M679.254 175.667C702.09 175.667 720.588 194.164 720.588 217V299.667C720.588 322.504 702.091 341 679.254 341C656.417 341 637.921 322.504 637.921 299.667V217C637.921 194.164 656.418 175.668 679.254 175.667ZM807.492 175.666C830.329 175.666 848.826 194.162 848.826 216.999V299.666C848.826 322.502 830.329 340.999 807.492 340.999C784.656 340.998 766.159 322.502 766.159 299.666V216.999C766.159 194.162 784.656 175.666 807.492 175.666Z" fill="black"/>
<path d="M190.003 684.417L151.321 684.626L95.7155 773.343L40.1102 684.417H1.42822V867.487H40.1102V746.415L86.2553 819.998H105.176L151.426 746.31V867.487H190.108V684.417H190.003Z" fill="black"/>
<path d="M681.1 775.743V867.487H642.207V781.588C642.207 781.588 643.364 758 620.764 758C598.165 758 590.176 769.689 590.176 781.588V867.487H551.284V729.088H590.176V746.519C590.176 746.519 601.633 726.27 634.534 726.27C683.517 726.27 681.1 771.464 681.1 775.743Z" fill="black"/>
<path d="M1160.84 729.089H1115.85L1059.72 781.275V684.417H1020.83V867.487H1059.72V823.233L1071.18 812.587L1115.96 867.487H1160.94L1096.61 788.79L1160.94 729.089H1160.84Z" fill="black"/>
<path d="M289.546 724.077H284.29C245.293 724.077 213.338 755.806 213.338 794.528V801.834C213.338 840.557 245.293 872.286 284.29 872.286H289.546C328.543 872.286 360.498 840.557 360.498 801.834V794.528C360.498 755.806 328.543 724.077 289.546 724.077ZM322.657 800.478C322.657 821.248 306.575 838.261 286.918 838.261C267.262 838.261 251.179 821.248 251.179 800.478V795.781C251.179 775.011 267.262 757.998 286.918 757.998C306.575 757.998 322.657 775.011 322.657 795.781V800.478Z" fill="black"/>
<path d="M456.052 724.077H450.796C411.799 724.077 379.844 755.806 379.844 794.528V801.834C379.844 840.557 411.799 872.286 450.796 872.286H456.052C495.049 872.286 527.004 840.557 527.004 801.834V794.528C527.004 755.806 495.049 724.077 456.052 724.077ZM489.163 800.478C489.163 821.248 473.08 838.261 453.424 838.261C433.768 838.261 417.685 821.248 417.685 800.478V795.781C417.685 775.011 433.768 757.998 453.424 757.998C473.08 757.998 489.163 775.011 489.163 795.781V800.478Z" fill="black"/>
<path d="M811.648 821.664L836.034 845.879C822.685 861.743 802.187 872.076 779.588 872.076C739.014 872.076 706.113 839.408 706.113 799.12V796.928C706.113 756.848 739.014 723.971 779.588 723.971C802.187 723.971 823 734.408 836.455 750.795L811.648 775.009C805.026 766.346 792.517 760.606 780.534 760.606C759.511 760.606 742.903 778.454 742.903 799.224C742.903 819.994 759.511 836.068 780.534 836.068C792.412 836.068 804.92 830.64 811.648 821.873V821.664Z" fill="black"/>
<path d="M955.336 728.981V741.297C945.14 730.86 930.108 723.971 915.497 723.971C876.08 723.971 843.81 756.013 843.81 795.153V801.103C843.81 840.243 876.08 872.285 915.497 872.285C930.108 872.285 945.14 865.292 955.336 854.959V867.275H994.018V728.981H955.336ZM919.912 837.842C898.784 837.842 881.44 820.62 881.44 799.641V796.615C881.44 775.636 898.784 758.414 919.912 758.414C939.358 758.414 955.336 774.279 955.336 793.588V802.773C955.336 822.082 939.358 837.946 919.912 837.946V837.842Z" fill="black"/>
<path d="M1296.33 783.778C1294.33 768.539 1287.08 755.075 1276.56 744.534C1263.85 731.905 1246.4 724.077 1227.16 724.077C1188.79 724.077 1157.47 755.075 1157.47 793.172V803.191C1157.47 841.079 1188.69 872.286 1227.06 872.286C1250.5 872.286 1268.47 868.007 1290.86 849.637L1266.05 827.823C1260.69 831.476 1250.18 837.217 1235.15 837.217C1217.39 837.217 1196.15 825.945 1194.16 806.531H1297.06V796.407C1297.06 793.589 1296.85 787.118 1296.43 783.882L1296.33 783.778ZM1194.26 783.778C1197.1 768.957 1211.5 757.789 1227.16 757.789C1242.82 757.789 1257.01 768.957 1260.17 783.778H1194.37H1194.26Z" fill="black"/>
<path d="M1.89587 1037.82V945.82H40.1418C45.3989 945.82 50.1304 947.091 54.3361 949.632C58.6295 952.173 62.0466 955.634 64.5876 960.015C67.1285 964.395 68.399 969.302 68.399 974.735C68.399 980.255 67.1285 985.249 64.5876 989.717C62.0466 994.098 58.6295 997.603 54.3361 1000.23C50.1304 1002.86 45.3989 1004.17 40.1418 1004.17H18.9817V1037.82H1.89587ZM18.9817 988.403H38.9589C41.1494 988.403 43.1208 987.79 44.8732 986.563C46.7132 985.337 48.1589 983.716 49.2104 981.7C50.3494 979.685 50.9189 977.407 50.9189 974.866C50.9189 972.325 50.3494 970.091 49.2104 968.163C48.1589 966.148 46.7132 964.571 44.8732 963.432C43.1208 962.205 41.1494 961.592 38.9589 961.592H18.9817V988.403ZM113.977 1039.13C107.055 1039.13 100.878 1037.6 95.4457 1034.53C90.0133 1031.38 85.7199 1027.09 82.5656 1021.65C79.4113 1016.22 77.8342 1010.05 77.8342 1003.12C77.8342 996.201 79.4113 990.024 82.5656 984.592C85.7199 979.159 90.0133 974.91 95.4457 971.843C100.878 968.689 107.055 967.112 113.977 967.112C120.812 967.112 126.945 968.689 132.377 971.843C137.81 974.91 142.059 979.159 145.126 984.592C148.28 990.024 149.857 996.201 149.857 1003.12C149.857 1010.05 148.28 1016.22 145.126 1021.65C142.059 1027.09 137.81 1031.38 132.377 1034.53C126.945 1037.6 120.812 1039.13 113.977 1039.13ZM113.977 1024.81C117.745 1024.81 121.074 1023.85 123.966 1021.92C126.945 1019.99 129.267 1017.41 130.932 1014.16C132.684 1010.92 133.516 1007.24 133.429 1003.12C133.516 998.918 132.684 995.194 130.932 991.952C129.267 988.71 126.945 986.169 123.966 984.329C121.074 982.401 117.745 981.437 113.977 981.437C110.21 981.437 106.792 982.401 103.726 984.329C100.747 986.169 98.4248 988.754 96.76 992.083C95.0952 995.325 94.2628 999.005 94.2628 1003.12C94.2628 1007.24 95.0952 1010.92 96.76 1014.16C98.4248 1017.41 100.747 1019.99 103.726 1021.92C106.792 1023.85 110.21 1024.81 113.977 1024.81ZM178.048 1037.82L154.785 968.557L171.345 968.426L186.854 1017.84L183.962 1017.58L200.785 978.94H210.511L227.728 1017.58L224.311 1017.97L239.951 968.557H256.511L233.117 1037.82H221.551L203.808 996.289L206.305 996.552L189.482 1037.82H178.048ZM298.946 1039.13C291.674 1039.13 285.234 1037.6 279.626 1034.53C274.106 1031.47 269.769 1027.31 266.615 1022.05C263.548 1016.7 262.015 1010.61 262.015 1003.78C262.015 998.348 262.891 993.398 264.643 988.929C266.396 984.46 268.805 980.605 271.872 977.363C275.026 974.034 278.75 971.493 283.043 969.74C287.424 967.9 292.2 966.98 297.369 966.98C301.925 966.98 306.175 967.856 310.118 969.609C314.061 971.361 317.478 973.771 320.369 976.837C323.261 979.816 325.451 983.409 326.941 987.615C328.518 991.733 329.263 996.245 329.175 1001.15L329.044 1006.8H272.923L269.9 995.763H315.506L313.403 997.998V995.106C313.141 992.39 312.264 990.024 310.775 988.009C309.285 985.906 307.358 984.285 304.992 983.146C302.714 981.919 300.173 981.306 297.369 981.306C293.076 981.306 289.44 982.138 286.46 983.803C283.569 985.468 281.379 987.877 279.889 991.032C278.399 994.098 277.655 997.954 277.655 1002.6C277.655 1007.07 278.575 1010.97 280.415 1014.29C282.342 1017.62 285.015 1020.21 288.432 1022.05C291.937 1023.8 296.011 1024.68 300.655 1024.68C303.897 1024.68 306.876 1024.15 309.592 1023.1C312.308 1022.05 315.243 1020.17 318.398 1017.45L326.415 1028.62C324.049 1030.81 321.333 1032.69 318.266 1034.27C315.287 1035.76 312.133 1036.94 308.803 1037.82C305.474 1038.7 302.188 1039.13 298.946 1039.13ZM343.493 1037.82V968.557H359.395L359.658 990.637L357.424 985.643C358.388 982.138 360.053 978.984 362.418 976.18C364.784 973.376 367.5 971.186 370.567 969.609C373.721 967.944 377.007 967.112 380.424 967.112C381.914 967.112 383.316 967.243 384.63 967.506C386.032 967.769 387.171 968.075 388.047 968.426L383.71 986.169C382.746 985.643 381.563 985.205 380.161 984.855C378.759 984.504 377.357 984.329 375.956 984.329C373.765 984.329 371.662 984.767 369.647 985.643C367.719 986.432 366.011 987.571 364.521 989.06C363.032 990.55 361.849 992.302 360.973 994.318C360.184 996.245 359.79 998.436 359.79 1000.89V1037.82H343.493ZM428.322 1039.13C421.049 1039.13 414.609 1037.6 409.002 1034.53C403.482 1031.47 399.145 1027.31 395.99 1022.05C392.924 1016.7 391.39 1010.61 391.39 1003.78C391.39 998.348 392.266 993.398 394.019 988.929C395.771 984.46 398.181 980.605 401.247 977.363C404.402 974.034 408.126 971.493 412.419 969.74C416.8 967.9 421.575 966.98 426.745 966.98C431.301 966.98 435.55 967.856 439.493 969.609C443.436 971.361 446.853 973.771 449.745 976.837C452.636 979.816 454.827 983.409 456.316 987.615C457.893 991.733 458.638 996.245 458.551 1001.15L458.419 1006.8H402.299L399.276 995.763H444.882L442.779 997.998V995.106C442.516 992.39 441.64 990.024 440.15 988.009C438.661 985.906 436.733 984.285 434.368 983.146C432.089 981.919 429.549 981.306 426.745 981.306C422.451 981.306 418.815 982.138 415.836 983.803C412.945 985.468 410.754 987.877 409.265 991.032C407.775 994.098 407.03 997.954 407.03 1002.6C407.03 1007.07 407.95 1010.97 409.79 1014.29C411.718 1017.62 414.39 1020.21 417.808 1022.05C421.312 1023.8 425.387 1024.68 430.03 1024.68C433.272 1024.68 436.251 1024.15 438.968 1023.1C441.684 1022.05 444.619 1020.17 447.773 1017.45L455.791 1028.62C453.425 1030.81 450.709 1032.69 447.642 1034.27C444.663 1035.76 441.509 1036.94 438.179 1037.82C434.849 1038.7 431.564 1039.13 428.322 1039.13ZM500.731 1039.13C494.598 1039.13 489.078 1037.6 484.171 1034.53C479.352 1031.38 475.497 1027.13 472.605 1021.79C469.801 1016.35 468.399 1010.13 468.399 1003.12C468.399 996.201 469.801 990.024 472.605 984.592C475.409 979.159 479.22 974.91 484.04 971.843C488.946 968.689 494.466 967.112 500.6 967.112C503.929 967.112 507.127 967.637 510.194 968.689C513.348 969.74 516.152 971.186 518.605 973.026C521.059 974.778 522.986 976.75 524.388 978.94C525.878 981.131 526.71 983.409 526.885 985.775L522.548 986.3V940.563H538.714V1037.82H523.074L522.68 1021.52L525.834 1021.79C525.746 1023.98 524.958 1026.08 523.468 1028.09C522.066 1030.11 520.226 1031.95 517.948 1033.61C515.67 1035.28 512.998 1036.64 509.931 1037.69C506.952 1038.65 503.885 1039.13 500.731 1039.13ZM503.885 1025.47C507.653 1025.47 510.983 1024.5 513.874 1022.57C516.765 1020.65 519 1018.02 520.577 1014.69C522.242 1011.36 523.074 1007.5 523.074 1003.12C523.074 998.83 522.242 995.018 520.577 991.689C519 988.272 516.765 985.643 513.874 983.803C510.983 981.876 507.653 980.912 503.885 980.912C500.118 980.912 496.788 981.876 493.897 983.803C491.005 985.643 488.727 988.272 487.062 991.689C485.485 995.018 484.697 998.83 484.697 1003.12C484.697 1007.5 485.485 1011.36 487.062 1014.69C488.727 1018.02 491.005 1020.65 493.897 1022.57C496.788 1024.5 500.118 1025.47 503.885 1025.47ZM633.944 1039.13C630.877 1039.13 627.854 1038.7 624.875 1037.82C621.984 1036.86 619.355 1035.59 616.989 1034.01C614.624 1032.43 612.652 1030.68 611.075 1028.75C609.498 1026.74 608.447 1024.72 607.921 1022.71L611.732 1021L611.338 1037.56H595.698V940.563H611.864V984.592L608.972 983.277C609.41 981.175 610.374 979.203 611.864 977.363C613.441 975.436 615.368 973.727 617.647 972.237C619.925 970.66 622.422 969.434 625.138 968.557C627.854 967.594 630.614 967.112 633.418 967.112C639.639 967.112 645.115 968.645 649.847 971.712C654.666 974.778 658.433 979.028 661.15 984.46C663.953 989.893 665.355 996.07 665.355 1002.99C665.355 1010 663.997 1016.22 661.281 1021.65C658.565 1027.09 654.797 1031.38 649.978 1034.53C645.247 1037.6 639.902 1039.13 633.944 1039.13ZM630.527 1024.94C634.207 1024.94 637.492 1024.02 640.384 1022.18C643.275 1020.25 645.553 1017.67 647.218 1014.43C648.883 1011.1 649.715 1007.29 649.715 1002.99C649.715 998.786 648.883 995.062 647.218 991.82C645.641 988.578 643.407 986.037 640.515 984.197C637.624 982.357 634.294 981.437 630.527 981.437C626.759 981.437 623.429 982.357 620.538 984.197C617.647 986.037 615.368 988.578 613.704 991.82C612.039 995.062 611.207 998.786 611.207 1002.99C611.207 1007.29 612.039 1011.1 613.704 1014.43C615.368 1017.67 617.647 1020.25 620.538 1022.18C623.429 1024.02 626.759 1024.94 630.527 1024.94ZM687.714 1068.05L702.434 1034.01L702.565 1044.79L668.394 968.557H687.057L706.114 1013.77C706.727 1014.91 707.34 1016.44 707.954 1018.37C708.567 1020.21 709.093 1022.05 709.531 1023.89L706.245 1024.94C706.859 1023.28 707.516 1021.52 708.217 1019.68C708.918 1017.76 709.575 1015.78 710.188 1013.77L726.485 968.557H745.28L716.365 1037.82L704.537 1068.05H687.714Z" fill="black"/>
<mask id="mask0_225_1065" style="mask-type:luminance" maskUnits="userSpaceOnUse" x="779" y="926" width="507" height="132">
<path d="M1285.36 926.352H779.714V1057.16H1285.36V926.352Z" fill="white"/>
</mask>
<g mask="url(#mask0_225_1065)">
<path d="M864.963 966.127L847.915 949.079L779.728 1017.27L796.775 1034.31L864.963 966.127Z" fill="black"/>
<path d="M839.384 940.556L825.178 926.349L802.447 949.08L816.654 963.286L839.384 940.556Z" fill="black"/>
<path d="M842.33 1034.42L828.124 1020.22L805.394 1042.95L819.6 1057.15L842.33 1034.42Z" fill="black"/>
<path d="M1285.36 972.851L1273.95 961.442L1243.17 992.224L1212.39 961.442L1200.98 972.851L1231.76 1003.63L1200.98 1034.42L1212.39 1045.82L1243.17 1015.04L1273.95 1045.82L1285.36 1034.42L1254.58 1003.63L1285.36 972.851Z" fill="black"/>
<path d="M1156.91 1010.43H1100.55C1099.67 1018.7 1105.76 1027.4 1114.2 1030.22C1125.23 1033.91 1135.31 1030.22 1141.28 1020.18C1145.69 1022.29 1150.12 1024.41 1154.72 1026.6C1148.55 1037.04 1139.88 1043.66 1128.1 1045.56C1115.16 1047.65 1103.77 1044.13 1094.67 1034.53C1086.9 1026.32 1083.87 1016.23 1084.1 1005.09C1084.28 996.416 1086.45 988.281 1091.74 981.291C1100.67 969.48 1112.82 964.697 1127.23 967.029C1142.01 969.418 1151.12 978.787 1155.46 992.913C1157.17 998.488 1157.34 1004.23 1156.91 1010.44L1156.91 1010.43ZM1139.92 995.979C1139.39 987.937 1131.48 981.535 1122.26 981.14C1110.88 980.65 1102.79 987.927 1101.48 995.979H1139.92Z" fill="black"/>
<path d="M943.393 968.327H917.369H903.055H901.233V1043.28H917.369V982.38H943.393V968.327Z" fill="black"/>
<path d="M1196.44 1010.5V996.442H1172.92V1010.5H1196.44Z" fill="black"/>
<path d="M1079.24 968.328H1056.33V944.906H1040.2V968.328V982.381V1043.28H1056.33V982.381H1079.24V968.328Z" fill="black"/>
<path d="M1011.58 968.071V977.877C1004.85 970.689 995.558 966.244 985.294 966.244C964.74 966.244 948.079 984.071 948.079 1006.06C948.079 1028.05 964.74 1045.88 985.294 1045.88C995.558 1045.88 1004.85 1041.43 1011.58 1034.25V1043.28H1025.63V968.071H1011.58ZM987.376 1030.48C974.728 1030.48 964.475 1019.55 964.475 1006.07C964.475 992.586 974.728 981.656 987.376 981.656C1000.02 981.656 1010.28 992.586 1010.28 1006.07C1010.28 1019.55 1000.02 1030.48 987.376 1030.48Z" fill="black"/>
</g>
</svg>
